# xmcd
#
# Track frame offsets:
#	180
#	3812
#	16695
#	32899
#	39325
#	51833
#	66451
#	80371
#	91097
#	104201
#	119144
#	127418
#	136774
#	145337
#
# Disc length: 2054 seconds
#
# Revision: 0
# Processed by: cddbd v1.5.2PL0 Copyright (c) Steve Scherf et al.
# Submitted via: EasyCDDAExtractor 16.0.6.1
#
DISCID=c308040e
DTITLE=Χορωδία Ι.Ν. Α. Κυρίλλου κ Μεθοδίου      - Χριστός Γεννάται
DYEAR=2002
DGENRE=Ύμνοι Χριστουγέννων
TTITLE0=Χριστός γεννάται δοξάσατε [Βυζαντινό επεξ. Θ Παπα/νου]
TTITLE1=Ρόδο μικρό ανθίζει [M. Praetorius]
TTITLE2=Άγια Νύχτα [F. Gruger]
TTITLE3=Καμπάνες [Παραδοσιακό Ρωσίας]
TTITLE4=Ω! Έλατο [Παραδοσιακό Γερμανίας]
TTITLE5=Δόξα εν υψίστοις Θεώ [Παραδοσιακό Γαλλίας]
TTITLE6=Κοιμήσου μικρέ Ιησού [Παραδοσιακό Ιταλίας]
TTITLE7=Τρίγωνα, κάλαντα [Παραδοσιακό Αγγλίας]
TTITLE8=Appalashian Carol [USA traditional]
TTITLE9=Αλληλούϊα [I. S. Bach]
TTITLE10=Ειρήνη στη γη [Παραδοσιακό ΗΠΑ]
TTITLE11=Γιορτινά τραγούδια [Λαϊκό Ουαλίας]
TTITLE12=Καλήν ημέραν άρχοντες [Κάλαντα Χριστουγέννων]
TTITLE13=Αρχιμηνιά κι αρχιχρονιά [Κάλαντα Πρωτοχρονιάς]
EXTD=
EXTT0=
EXTT1=
EXTT2=
EXTT3=
EXTT4=
EXTT5=
EXTT6=
EXTT7=
EXTT8=
EXTT9=
EXTT10=
EXTT11=
EXTT12=
EXTT13=
PLAYORDER=
